<svg xmlns="http://www.w3.org/2000/svg" xmlns:xlink="http://www.w3.org/1999/xlink" version="1.1" x="0px" y="0px" viewBox="0 0 100 125" style="enable-background:new 0 0 100 100;" xml:space="preserve"><g><rect x="47.5" y="5" width="5" height="15"/><rect x="5" y="47.5" width="15" height="5"/><rect x="23.8" y="15" transform="matrix(0.5 0.866 -0.866 0.5 30.801 -18.3013)" width="15" height="5"/><rect x="80" y="23.8" transform="matrix(0.5 0.866 -0.866 0.5 68.3009 -55.8013)" width="5" height="15"/><rect x="15" y="61.3" transform="matrix(0.5 0.866 -0.866 0.5 68.301 19.1986)" width="5" height="15"/><rect x="66.3" y="10" transform="matrix(0.866 0.5 -0.5 0.866 17.973 -32.0275)" width="5" height="15"/><rect x="10" y="28.8" transform="matrix(0.866 0.5 -0.5 0.866 17.9729 -4.5753)" width="15" height="5"/><path d="M81.4,62.4c-0.8-4.2-3.2-7.9-6.5-10.3c0.1-0.7,0.1-1.3,0.1-2c0-13.8-11.2-25-25-25S25,36.2,25,50c0,8.9,4.7,16.8,11.8,21.2   C35.7,73.5,35,76,35,78.8c0,7.8,5.3,14.3,12.5,16.1V95H48c1.2,0.3,2.4,0.4,3.7,0.4h26.7C87.5,95.4,95,88,95,78.8   C95,70.6,89.1,63.8,81.4,62.4z M32.5,50c0-9.6,7.9-17.5,17.5-17.5c9.3,0,16.9,7.3,17.5,16.4c-0.8-0.1-1.6-0.2-2.5-0.2   c-8.2,0-14.9,5.9-16.4,13.6c-2.6,0.5-4.9,1.5-6.9,3C36.2,62.4,32.5,56.6,32.5,50z M78.3,90.4H51.7c-6.4,0-11.7-5.2-11.7-11.7   c0-5.6,4-10.4,9.5-11.5l1.9-0.4c0.1,0,0.1,0,0.2,0c2.4,0,4.7,0.7,6.7,2.1l2.9-4.1c-2.2-1.6-4.8-2.5-7.4-2.9c1.5-4.9,6-8.3,11.2-8.3   c5.6,0,10.4,4,11.5,9.5l0.4,1.9c0,0.1,0,0.1,0,0.2c0,3-1.1,5.9-3.2,8.1l3.6,3.4c2.4-2.6,4-5.9,4.4-9.4c4.9,1.5,8.3,6,8.3,11.2   C90,85.2,84.8,90.4,78.3,90.4z"/></g><text x="0" y="115" fill="#000000" font-size="5px" font-weight="bold" font-family="'Helvetica Neue', Helvetica, Arial-Unicode, Arial, Sans-serif">Created by Arthur Shlain</text><text x="0" y="120" fill="#000000" font-size="5px" font-weight="bold" font-family="'Helvetica Neue', Helvetica, Arial-Unicode, Arial, Sans-serif">from the Noun Project</text></svg>