<svg xmlns="http://www.w3.org/2000/svg" xmlns:xlink="http://www.w3.org/1999/xlink" version="1.1" x="0px" y="0px" viewBox="0 0 100 125" enable-background="new 0 0 100 100" xml:space="preserve"><path d="M78.5,21.5c0-0.1-0.1-0.3-0.2-0.4c-0.1-0.3-0.3-0.6-0.4-1c-0.1-0.3-0.2-0.6-0.4-0.9c-0.2-0.3-0.3-0.6-0.5-1  c-0.2-0.3-0.3-0.6-0.5-1c0-0.1-0.1-0.1-0.1-0.2C72.1,9.7,64,5,55,5c-10,0-19,6-23,15.1c-0.2,0-0.3,0-0.5,0c-0.3,0-0.6,0-0.9,0  c-0.2,0-0.4,0-0.6,0c-2,0-4,0.3-5.9,0.7c0,0-0.1,0-0.1,0c-0.7,0.2-1.4,0.4-2.1,0.6c-0.1,0-0.1,0-0.2,0.1c-0.3,0.1-0.5,0.2-0.8,0.3  c-0.2,0.1-0.3,0.1-0.5,0.2C20.3,22,20.1,22,20,22.1c-0.2,0.1-0.5,0.2-0.7,0.3c-0.1,0-0.2,0.1-0.2,0.1c-2.4,1.2-4.7,2.8-6.7,4.8  c0,0-0.1,0.1-0.1,0.1C7.8,32,5,38.2,5,45c0,13.8,11.2,25,25,25h40c13.8,0,25-11.2,25-25C95,34.3,88.4,25.1,78.5,21.5z M70,65H30  c-11,0-20-9-20-20c0-5.8,2.5-11,6.4-14.6c0.2-0.2,0.4-0.4,0.6-0.6c0.2-0.2,0.4-0.3,0.5-0.5c0.4-0.3,0.8-0.6,1.2-0.9  c0,0,0.1,0,0.1-0.1c0.4-0.3,0.8-0.5,1.3-0.8c0.2-0.1,0.3-0.2,0.5-0.3c0.3-0.2,0.7-0.3,1-0.5c0.3-0.1,0.5-0.3,0.8-0.4  c0.3-0.1,0.5-0.2,0.8-0.3c0.4-0.1,0.7-0.3,1.1-0.4c0.2,0,0.3-0.1,0.5-0.1c0.5-0.1,1-0.3,1.4-0.4c0,0,0.1,0,0.1,0  c1.9-0.3,3.7-0.4,5.6-0.3c0.1,0,0.1,0,0.2,0c4.4,0.5,8.7,2.4,12.1,5.7c0.5,0.5,1.1,0.7,1.8,0.7s1.3-0.2,1.8-0.7c1-1,1-2.6,0-3.5  c-3-3-6.7-5.1-10.5-6.3c3.4-6.7,10.2-11,17.9-11c5.4,0,10.4,2.1,14,5.7c0,0,0.1,0.1,0.1,0.1c1.4,1.4,2.6,3,3.5,4.7  c0,0.1,0.1,0.1,0.1,0.2c0.3,0.5,0.5,1.1,0.8,1.7c0,0,0,0,0,0c2.9,7.2,1.5,15.8-4.4,21.7c-1,1-1,2.6,0,3.5c0.5,0.5,1.1,0.7,1.8,0.7  s1.3-0.2,1.8-0.7c5.5-5.5,7.9-12.9,7.2-20.1C86.1,31.1,90,37.6,90,45C90,56,81,65,70,65z"/><path d="M26.1,75.3c-1.2-0.6-2.7-0.1-3.4,1.1l-7.5,15c-0.6,1.2-0.1,2.7,1.1,3.4c0.4,0.2,0.7,0.3,1.1,0.3c0.9,0,1.8-0.5,2.2-1.4  l7.5-15C27.9,77.4,27.4,75.9,26.1,75.3z"/><path d="M38.6,75.3c-1.2-0.6-2.7-0.1-3.4,1.1l-7.5,15c-0.6,1.2-0.1,2.7,1.1,3.4c0.4,0.2,0.7,0.3,1.1,0.3c0.9,0,1.8-0.5,2.2-1.4  l7.5-15C40.4,77.4,39.9,75.9,38.6,75.3z"/><path d="M51.1,75.3c-1.2-0.6-2.7-0.1-3.4,1.1l-7.5,15c-0.6,1.2-0.1,2.7,1.1,3.4c0.4,0.2,0.7,0.3,1.1,0.3c0.9,0,1.8-0.5,2.2-1.4  l7.5-15C52.9,77.4,52.4,75.9,51.1,75.3z"/><path d="M63.6,75.3c-1.2-0.6-2.7-0.1-3.4,1.1l-7.5,15c-0.6,1.2-0.1,2.7,1.1,3.4c0.4,0.2,0.7,0.3,1.1,0.3c0.9,0,1.8-0.5,2.2-1.4  l7.5-15C65.4,77.4,64.9,75.9,63.6,75.3z"/><path d="M76.1,75.3c-1.2-0.6-2.7-0.1-3.4,1.1l-7.5,15c-0.6,1.2-0.1,2.7,1.1,3.4c0.4,0.2,0.7,0.3,1.1,0.3c0.9,0,1.8-0.5,2.2-1.4  l7.5-15C77.9,77.4,77.4,75.9,76.1,75.3z"/><text x="0" y="115" fill="#000000" font-size="5px" font-weight="bold" font-family="'Helvetica Neue', Helvetica, Arial-Unicode, Arial, Sans-serif">Created by Arthur Shlain</text><text x="0" y="120" fill="#000000" font-size="5px" font-weight="bold" font-family="'Helvetica Neue', Helvetica, Arial-Unicode, Arial, Sans-serif">from the Noun Project</text></svg>