<svg xmlns="http://www.w3.org/2000/svg" xmlns:xlink="http://www.w3.org/1999/xlink" version="1.1" x="0px" y="0px" viewBox="0 0 100 125" enable-background="new 0 0 100 100" xml:space="preserve">
    <g><polygon points="14.923,47.525 12.498,42.896 10.074,47.525 4.924,48.399 8.576,52.137 7.817,57.305 12.498,54.986 17.18,57.305    16.421,52.137 20.073,48.399  "/><polygon points="33.424,47.525 30.999,42.896 28.575,47.525 23.424,48.399 27.076,52.137 26.317,57.305 30.999,54.986    35.68,57.305 34.921,52.137 38.574,48.399  "/><polygon points="51.923,47.525 49.499,42.896 47.074,47.525 41.923,48.399 45.576,52.137 44.817,57.305 49.499,54.986    54.181,57.305 53.422,52.137 57.074,48.399  "/><path
        d="M70.744,47.083l-2.746-5.241l-2.746,5.241l-5.831,0.991l4.136,4.23l-0.859,5.854l5.301-2.627l5.302,2.627l-0.859-5.854   l4.135-4.23L70.744,47.083z M72.061,56.453l-4.063-2.014l-4.062,2.014l0.658-4.486l-3.168-3.241l4.469-0.759l2.103-4.016   l2.104,4.016l4.469,0.759l-3.169,3.241L72.061,56.453z"/><path
        d="M95.076,48.074l-5.832-0.991l-2.746-5.241l-2.744,5.241l-5.832,0.991l4.135,4.23l-0.859,5.854l5.301-2.627l5.301,2.627   l-0.858-5.854L95.076,48.074z M86.498,54.439l-4.061,2.014l0.657-4.486l-3.168-3.241l4.468-0.759l2.104-4.016l2.104,4.016   l4.469,0.759l-3.169,3.241l0.658,4.486L86.498,54.439z"/></g>
</svg>
