<svg xmlns="http://www.w3.org/2000/svg" xmlns:xlink="http://www.w3.org/1999/xlink" version="1.1" x="0px" y="0px" viewBox="0 0 100 125" enable-background="new 0 0 100 100" xml:space="preserve">
    <g><path
        d="M16.154,47.118L13.44,41.94l-2.712,5.178l-5.762,0.979l4.086,4.18l-0.85,5.783l5.238-2.594l5.238,2.594l-0.85-5.783   l4.087-4.18L16.154,47.118z M17.455,56.375l-4.014-1.988l-4.013,1.988l0.651-4.432l-3.131-3.202l4.416-0.751l2.078-3.968   l2.079,3.968l4.415,0.751l-3.131,3.202L17.455,56.375z"/><path
        d="M34.433,47.118L31.72,41.94l-2.712,5.178l-5.762,0.979l4.086,4.18l-0.85,5.783l5.238-2.594l5.238,2.594l-0.85-5.783   l4.087-4.18L34.433,47.118z M35.734,56.375l-4.014-1.988l-4.013,1.988l0.651-4.432l-3.132-3.202l4.416-0.751l2.078-3.968   l2.079,3.968l4.415,0.751l-3.131,3.202L35.734,56.375z"/><path
        d="M52.712,47.118L50,41.94l-2.712,5.178l-5.764,0.979l4.088,4.18l-0.85,5.783L50,55.467l5.237,2.594l-0.849-5.783l4.086-4.18   L52.712,47.118z M54.014,56.375L50,54.387l-4.013,1.988l0.65-4.432l-3.131-3.202l4.416-0.751L50,44.023l2.078,3.967l4.417,0.751   l-3.132,3.202L54.014,56.375z"/><path
        d="M70.992,47.118l-2.714-5.178l-2.712,5.178l-5.763,0.979l4.087,4.18l-0.85,5.783l5.237-2.594l5.238,2.594l-0.85-5.783   l4.088-4.18L70.992,47.118z M72.293,56.375l-4.015-1.988l-4.013,1.988l0.65-4.432l-3.131-3.202l4.416-0.751l2.077-3.968   l2.079,3.968l4.416,0.751l-3.132,3.202L72.293,56.375z"/><path
        d="M95.034,48.097l-5.763-0.979l-2.713-5.178l-2.713,5.178l-5.762,0.979l4.087,4.18l-0.85,5.783l5.237-2.594l5.238,2.594   l-0.85-5.783L95.034,48.097z M86.559,54.387l-4.014,1.988l0.651-4.432l-3.132-3.202l4.416-0.751l2.078-3.968l2.078,3.968   l4.416,0.751l-3.131,3.202l0.651,4.432L86.559,54.387z"/></g>
</svg>    
