<svg xmlns="http://www.w3.org/2000/svg" xmlns:xlink="http://www.w3.org/1999/xlink" version="1.1" x="0px" y="0px" viewBox="0 0 100 125" enable-background="new 0 0 100 100" xml:space="preserve">
    <g><polygon fill-rule="evenodd" clip-rule="evenodd" points="15,47.53 12.581,42.912 10.162,47.53 5.023,48.403 8.667,52.131    7.91,57.288 12.581,54.975 17.252,57.288 16.495,52.131 20.139,48.403  "/><polygon fill-rule="evenodd" clip-rule="evenodd" points="33.46,47.53 31.041,42.912 28.622,47.53 23.482,48.403 27.127,52.131    26.37,57.288 31.041,54.975 35.712,57.288 34.955,52.131 38.599,48.403  "/><polygon fill-rule="evenodd" clip-rule="evenodd" points="51.918,47.53 49.5,42.912 47.081,47.53 41.941,48.403 45.586,52.131    44.828,57.288 49.5,54.975 54.172,57.288 53.414,52.131 57.059,48.403  "/><path
        fill-rule="evenodd"
        clip-rule="evenodd"
        d="M94.977,48.078l-5.818-0.988l-2.74-5.229l-2.738,5.229l-5.82,0.988l4.127,4.221   l-0.857,5.842l5.289-2.621l5.289,2.619l-0.857-5.84L94.977,48.078z M86.418,54.43l-4.053,2.008l0.656-4.475l-3.162-3.234   l4.461-0.758l2.098-4.007l2.1,4.007l4.459,0.758l-3.162,3.234l0.656,4.475L86.418,54.43z"/><polygon fill-rule="evenodd" clip-rule="evenodd" points="70.377,47.53 67.959,42.912 65.539,47.53 60.4,48.403 64.045,52.131    63.287,57.288 67.959,54.975 72.631,57.288 71.873,52.131 75.518,48.403  "/></g>
    
</svg>
