<svg xmlns="http://www.w3.org/2000/svg" xmlns:xlink="http://www.w3.org/1999/xlink" version="1.1" x="0px" y="0px" viewBox="0 0 100 125" enable-background="new 0 0 100 100" xml:space="preserve">
    <g><polygon points="15.042,47.533 12.626,42.921 10.21,47.533 5.077,48.405 8.717,52.129 7.961,57.28 12.626,54.969 17.292,57.28    16.536,52.129 20.176,48.405  "/><polygon points="33.479,47.533 31.063,42.921 28.647,47.533 23.514,48.405 27.154,52.129 26.397,57.28 31.063,54.969 35.729,57.28    34.972,52.129 38.613,48.405  "/><path
        d="M52.236,47.093l-2.735-5.222l-2.736,5.222l-5.813,0.988l4.122,4.216l-0.857,5.833l5.284-2.617l5.282,2.617l-0.855-5.833   l4.121-4.216L52.236,47.093z M53.549,56.43l-4.048-2.006l-4.049,2.006l0.657-4.47L42.95,48.73l4.454-0.757l2.097-4.002l2.097,4.002   l4.453,0.757l-3.158,3.229L53.549,56.43z"/><path
        d="M70.674,47.093l-2.736-5.223l-2.736,5.223l-5.811,0.988l4.121,4.216l-0.857,5.833l5.283-2.617l5.283,2.617l-0.855-5.833   l4.121-4.216L70.674,47.093z M71.986,56.43l-4.049-2.006l-4.047,2.006l0.656-4.47l-3.158-3.229l4.453-0.757l2.096-4.001   l2.096,4.001l4.455,0.757L71.33,51.96L71.986,56.43z"/><path
        d="M94.924,48.081l-5.813-0.988l-2.736-5.223l-2.736,5.223l-5.813,0.988l4.121,4.216l-0.855,5.833l5.283-2.617l5.283,2.617   l-0.857-5.833L94.924,48.081z M86.375,54.424l-4.049,2.006l0.656-4.47l-3.158-3.229l4.455-0.757l2.096-4.001l2.096,4.001   l4.455,0.757l-3.158,3.229l0.656,4.47L86.375,54.424z"/></g>
    
</svg>
