<svg xmlns="http://www.w3.org/2000/svg" xmlns:xlink="http://www.w3.org/1999/xlink" version="1.1" x="0px" y="0px" viewBox="0 0 100 125" enable-background="new 0 0 100 100" xml:space="preserve">
    <g><polygon points="15.022,47.531 12.604,42.917 10.188,47.531 5.051,48.404 8.693,52.129 7.936,57.284 12.604,54.972 17.273,57.284    16.516,52.129 20.159,48.404  "/><path
        d="M33.79,47.091l-2.737-5.226l-2.737,5.226l-5.816,0.988l4.124,4.22l-0.857,5.836l5.286-2.619l5.286,2.619l-0.857-5.836   l4.125-4.22L33.79,47.091z M35.103,56.435l-4.051-2.008l-4.051,2.008l0.657-4.474l-3.16-3.231l4.457-0.758l2.097-4.003l2.097,4.003   l4.457,0.758l-3.16,3.231L35.103,56.435z"/><path
        d="M52.238,47.091L49.5,41.865l-2.737,5.226l-5.816,0.988l4.124,4.22l-0.857,5.836l5.286-2.619l5.287,2.619l-0.857-5.837   l4.125-4.219L52.238,47.091z M53.551,56.435L49.5,54.427l-4.051,2.008l0.657-4.474l-3.16-3.231l4.457-0.758l2.097-4.003   l2.098,4.003l4.455,0.758l-3.158,3.231L53.551,56.435z"/><path
        d="M70.686,47.091l-2.738-5.226l-2.738,5.226l-5.814,0.988l4.125,4.22l-0.857,5.836l5.285-2.619l5.287,2.619l-0.857-5.836   l4.123-4.22L70.686,47.091z M71.998,56.435l-4.051-2.008l-4.049,2.008l0.656-4.474l-3.16-3.231l4.455-0.758l2.098-4.004l2.1,4.004   l4.455,0.758l-3.16,3.231L71.998,56.435z"/><path
        d="M94.949,48.079l-5.816-0.988l-2.736-5.226l-2.738,5.226l-5.816,0.988l4.125,4.22l-0.857,5.836l5.287-2.619l5.285,2.619   l-0.857-5.836L94.949,48.079z M86.396,54.427l-4.051,2.008l0.656-4.474l-3.16-3.231l4.457-0.758l2.098-4.003l2.096,4.003   l4.457,0.758l-3.16,3.231l0.658,4.474L86.396,54.427z"/></g>
  
</svg>
