<svg xmlns="http://www.w3.org/2000/svg" xmlns:xlink="http://www.w3.org/1999/xlink" version="1.1" x="0px" y="0px" viewBox="0 0 100 125" style="enable-background:new 0 0 100 100;" xml:space="preserve">
    <g><rect x="47.5" y="5" width="5" height="15"/><rect x="47.5" y="80" width="5" height="15"/><rect x="80" y="47.5" width="15" height="5"/><rect x="5" y="47.5" width="15" height="5"/><rect x="23.8" y="15" transform="matrix(0.5 0.866 -0.866 0.5 30.801 -18.3013)" width="15" height="5"/><rect x="61.3" y="80" transform="matrix(-0.5 -0.866 0.866 -0.5 31.6991 183.2535)" width="15" height="5"/><rect x="80" y="23.8" transform="matrix(0.5 0.866 -0.866 0.5 68.3009 -55.8013)" width="5" height="15"/><rect x="15" y="61.3" transform="matrix(0.5 0.866 -0.866 0.5 68.301 19.1986)" width="5" height="15"/><rect x="66.3" y="10" transform="matrix(0.866 0.5 -0.5 0.866 17.973 -32.0275)" width="5" height="15"/><rect x="23.8" y="80" transform="matrix(-0.5 0.866 -0.866 -0.5 118.3013 96.6512)" width="15" height="5"/><rect x="75" y="66.3" transform="matrix(0.866 0.5 -0.5 0.866 45.4252 -32.0275)" width="15" height="5"/><rect x="10" y="28.8" transform="matrix(0.866 0.5 -0.5 0.866 17.9729 -4.5753)" width="15" height="5"/><path d="M50,25c-13.8,0-25,11.2-25,25s11.2,25,25,25s25-11.2,25-25S63.8,25,50,25z M50,67.5c-9.6,0-17.5-7.9-17.5-17.5   S40.4,32.5,50,32.5S67.5,40.4,67.5,50S59.6,67.5,50,67.5z"/></g>
</svg>
