<svg xmlns="http://www.w3.org/2000/svg" xmlns:xlink="http://www.w3.org/1999/xlink" version="1.0" x="0px" y="0px" viewBox="0 0 100 125" enable-background="new 0 0 100 100" xml:space="preserve">
    <g>
        <g><path
            d="M86.4,44.7c-0.8,0-1.6,0.1-2.4,0.3c-1.6-2.4-4-4.2-6.8-5c-1.6-6.5-7.4-11.1-14.1-11.1c-6.6,0-12.4,4.5-14.1,10.8    c-3.2,0.6-6,2.4-7.8,5.1c-0.5-0.1-1-0.1-1.4-0.1c-5.2,0-9.4,4.2-9.4,9.4c0,5.2,4.2,9.4,9.4,9.4c1.9,0,3.8-0.6,5.3-1.7    c3.5,2.1,8,2.2,11.6,0.3c3.5,1.9,7.9,1.8,11.4-0.1c3.8,2.1,8.8,1.9,12.5-0.5c1.6,1.3,3.7,2,5.8,2c5.2,0,9.4-4.2,9.4-9.4    C95.8,48.9,91.5,44.7,86.4,44.7z M86.4,60.5c-1.8,0-3.4-0.7-4.6-2c-0.3-0.3-0.7-0.5-1.1-0.5c-0.3,0-0.7,0.1-1,0.3    c-1.6,1.4-3.7,2.1-5.8,2.1c-1.8,0-3.5-0.5-5-1.5c-0.5-0.3-1.2-0.3-1.7,0c-2.9,1.9-6.8,2-9.8,0.1c-0.5-0.3-1.1-0.3-1.6,0    c-1.4,0.9-3.1,1.4-4.8,1.4c-1.9,0-3.7-0.6-5.3-1.7c-0.6-0.4-1.4-0.4-1.9,0.1c-1.2,1-2.7,1.6-4.2,1.6c-3.5,0-6.4-2.9-6.4-6.4    c0-3.5,2.9-6.4,6.4-6.4c0.6,0,1.2,0.1,1.8,0.3c0.7,0.2,1.4-0.1,1.7-0.7c1.4-2.7,4.1-4.4,7.1-4.7c0.7-0.1,1.2-0.6,1.3-1.2    c1-5.5,5.8-9.4,11.4-9.4c5.6,0,10.4,4,11.4,9.6c0.1,0.6,0.6,1.1,1.2,1.2c2.7,0.5,5.1,2.3,6.3,4.8c0.4,0.7,1.2,1,1.9,0.7    c0.8-0.3,1.6-0.5,2.5-0.5c3.5,0,6.4,2.9,6.4,6.4C92.8,57.6,89.9,60.5,86.4,60.5z"/><path d="M13.2,39.9h29.6c0.8,0,1.5-0.7,1.5-1.5s-0.7-1.5-1.5-1.5H13.2c-0.8,0-1.5,0.7-1.5,1.5S12.3,39.9,13.2,39.9z"/><path d="M29,59.9H5.2c-0.8,0-1.5,0.7-1.5,1.5s0.7,1.5,1.5,1.5H29c0.8,0,1.5-0.7,1.5-1.5S29.8,59.9,29,59.9z"/><path d="M8,51.4h14c0.8,0,1.5-0.7,1.5-1.5s-0.7-1.5-1.5-1.5H8c-0.8,0-1.5,0.7-1.5,1.5S7.2,51.4,8,51.4z"/></g>
    </g>
    
</svg>
